<svg width="32" height="32" fill="#1d1d1d" xmlns="http://www.w3.org/2000/svg"><g clip-path="url(#clip0_4575_28389)" fill="#1D1D1D"><path fill-rule="evenodd" clip-rule="evenodd" d="M4.8 0a2 2 0 00-2 2v25.285a2 2 0 002 2h10.82a7.963 7.963 0 01-.998-4.14H7.047a1.117 1.117 0 110-2.235h7.968a7.982 7.982 0 011.338-2.481H7.047a1.117 1.117 0 010-2.235h12.1a7.969 7.969 0 013.471-.79 7.97 7.97 0 013.402.758V2a2 2 0 00-2-2H4.8zm2.247 4.047a1.117 1.117 0 100 2.234h14.726a1.117 1.117 0 000-2.234H7.047zM5.93 9.88c0-.617.5-1.117 1.117-1.117h14.726a1.117 1.117 0 110 2.234H7.047c-.617 0-1.117-.5-1.117-1.117zm1.117 3.598a1.117 1.117 0 000 2.235h14.726a1.117 1.117 0 000-2.234H7.047z"/><path d="M22.601 21.8a.6.6 0 01.6.6v2.4h2.4a.6.6 0 010 1.2h-2.4v2.4a.6.6 0 01-1.2 0V26h-2.4a.6.6 0 010-1.2h2.4v-2.4a.6.6 0 01.6-.6z"/><path fill-rule="evenodd" clip-rule="evenodd" d="M22.6 18.8a6.6 6.6 0 100 13.2 6.6 6.6 0 000-13.2zm-5.4 6.6a5.4 5.4 0 1110.8 0 5.4 5.4 0 01-10.8 0z"/></g><defs><clipPath id="clip0_4575_28389"><path fill="#fff" d="M0 0h32v32H0z"/></clipPath></defs></svg>